<svg xmlns="http://www.w3.org/2000/svg" viewBox="0 0 2200 1200" preserveAspectRatio="xMidYMid slice" role="img" aria-label="cinematic weightlifter performing heavy squat in Assert shoes">
  <defs>
    <radialGradient id="backGlow" cx="50%" cy="45%" r="62%">
      <stop offset="0" stop-color="#ffd54a" stop-opacity="0.28"/>
      <stop offset="44%" stop-color="#8a6400" stop-opacity="0.10"/>
      <stop offset="100%" stop-color="#000" stop-opacity="0"/>
    </radialGradient>
    <linearGradient id="body" x1="0" x2="1" y1="0" y2="1">
      <stop offset="0" stop-color="#3a3015" stop-opacity=".82"/>
      <stop offset=".45" stop-color="#0b0b0b" stop-opacity=".90"/>
      <stop offset="1" stop-color="#000" stop-opacity=".96"/>
    </linearGradient>
    <filter id="goldAura" x="-40%" y="-40%" width="180%" height="180%">
      <feGaussianBlur stdDeviation="10" result="blur"/>
      <feColorMatrix in="blur" type="matrix" values="1 0 0 0 0.95  0 1 0 0 0.64  0 0 1 0 0.06  0 0 0 .75 0" result="glow"/>
      <feMerge><feMergeNode in="glow"/><feMergeNode in="SourceGraphic"/></feMerge>
    </filter>
    <filter id="softShadow"><feDropShadow dx="0" dy="24" stdDeviation="26" flood-color="#000" flood-opacity=".8"/></filter>
  </defs>
  <rect width="2200" height="1200" fill="none"/>
  <ellipse cx="1100" cy="650" rx="980" ry="430" fill="url(#backGlow)"/>
  <g opacity=".55" stroke="#d5a500" stroke-width="3" fill="none">
    <path d="M110 260 C520 60 780 285 1100 145 C1450 -10 1740 155 2090 50"/>
    <path d="M120 1010 C510 755 830 1030 1120 835 C1460 608 1740 790 2100 575"/>
    <path d="M350 1100 C760 910 1240 965 1840 760" opacity=".45"/>
  </g>
  <g transform="translate(1100 330)" filter="url(#goldAura)">
    <rect x="-800" y="-15" width="1600" height="30" rx="15" fill="#0b0b0b" stroke="#8d6b09" stroke-width="3"/>
    <g fill="#050505" stroke="#caa21a" stroke-opacity=".45" stroke-width="5">
      <rect x="-1000" y="-150" width="70" height="300" rx="22"/>
      <rect x="-925" y="-180" width="82" height="360" rx="24"/>
      <rect x="-838" y="-125" width="58" height="250" rx="18"/>
      <rect x="780" y="-125" width="58" height="250" rx="18"/>
      <rect x="843" y="-180" width="82" height="360" rx="24"/>
      <rect x="930" y="-150" width="70" height="300" rx="22"/>
    </g>
  </g>
  <g transform="translate(1100 650)" filter="url(#softShadow)" opacity=".78">
    <circle cx="0" cy="-270" r="62" fill="url(#body)" stroke="#f3c522" stroke-opacity=".26" stroke-width="6"/>
    <path d="M-100-185 C-82-282 86-282 104-185 L148 110 C78 152 -82 152 -152 110 Z" fill="url(#body)" stroke="#f3c522" stroke-opacity=".22" stroke-width="6"/>
    <path d="M-100-150 C-285-112 -420-42 -540 70" stroke="#060606" stroke-width="70" stroke-linecap="round"/>
    <path d="M100-150 C285-112 420-42 540 70" stroke="#060606" stroke-width="70" stroke-linecap="round"/>
    <path d="M-132 82 C-286 168 -410 300 -516 456" stroke="#050505" stroke-width="82" stroke-linecap="round"/>
    <path d="M132 82 C286 168 410 300 516 456" stroke="#050505" stroke-width="82" stroke-linecap="round"/>
    <path d="M-540 455 C-605 470 -660 462 -710 430 C-715 388 -682 360 -622 360 L-485 360 C-450 390 -470 440 -540 455Z" fill="#020202" stroke="#d8ff22" stroke-width="13" stroke-linejoin="round"/>
    <path d="M540 455 C605 470 660 462 710 430 C715 388 682 360 622 360 L485 360 C450 390 470 440 540 455Z" fill="#020202" stroke="#d8ff22" stroke-width="13" stroke-linejoin="round"/>
    <path d="M-692 418 L-510 418" stroke="#f5c833" stroke-width="10" stroke-linecap="round" opacity=".94"/>
    <path d="M510 418 L692 418" stroke="#f5c833" stroke-width="10" stroke-linecap="round" opacity=".94"/>
    <text x="-608" y="400" fill="#f4bd18" font-size="36" font-family="Arial Black,Arial" opacity=".42" transform="rotate(-4 -608 400)">ASSERT</text>
    <text x="500" y="400" fill="#f4bd18" font-size="36" font-family="Arial Black,Arial" opacity=".42" transform="rotate(4 500 400)">ASSERT</text>
  </g>
  <g opacity=".18" stroke="#ffd447" stroke-width="2" fill="none">
    <circle cx="1100" cy="585" r="430"/>
    <circle cx="1100" cy="585" r="610" stroke-dasharray="18 24"/>
  </g>
</svg>
